<svg xmlns="http://www.w3.org/2000/svg" viewBox="0 0 339.19 78.49"><defs><style>.cls-1{fill:#3f3f3f;}</style></defs><g id="Layer_2" data-name="Layer 2"><g id="Layer_3" data-name="Layer 3"><path class="cls-1" d="M9.38,65.32a3.77,3.77,0,0,1-1.62,1.56,6.08,6.08,0,0,1-2.87.6H2.32v5.74H0V59.07H4.89a6.18,6.18,0,0,1,2.75.56,3.81,3.81,0,0,1,1.69,1.52,4.06,4.06,0,0,1,.56,2.13A4.29,4.29,0,0,1,9.38,65.32ZM6.86,65a2.2,2.2,0,0,0,.65-1.7c0-1.54-.87-2.32-2.62-2.32H2.32v4.62H4.89A2.81,2.81,0,0,0,6.86,65Z"/><path class="cls-1" d="M15.79,62.3a4,4,0,0,1,2-.48v2.4H17.2a2.8,2.8,0,0,0-2.06.69,3.29,3.29,0,0,0-.71,2.4v5.91H12.11V62h2.32v1.63A3.62,3.62,0,0,1,15.79,62.3Z"/><path class="cls-1" d="M30.13,68.47H21.56a3.11,3.11,0,0,0,3.19,3,2.73,2.73,0,0,0,2.65-1.57h2.5a5,5,0,0,1-1.84,2.53,5.4,5.4,0,0,1-3.31,1,5.75,5.75,0,0,1-2.88-.72,5.14,5.14,0,0,1-2-2,6.21,6.21,0,0,1-.72-3,6.32,6.32,0,0,1,.7-3,4.94,4.94,0,0,1,2-2,5.93,5.93,0,0,1,2.92-.71,5.7,5.7,0,0,1,2.83.69,4.89,4.89,0,0,1,1.94,1.94,5.9,5.9,0,0,1,.69,2.88A7.63,7.63,0,0,1,30.13,68.47ZM27.79,66.6a2.64,2.64,0,0,0-.92-2,3.27,3.27,0,0,0-2.22-.78,3,3,0,0,0-2,.77,3.16,3.16,0,0,0-1,2.06Z"/><path class="cls-1" d="M32.42,64.56a5,5,0,0,1,1.94-2,5.68,5.68,0,0,1,2.85-.71,5.62,5.62,0,0,1,3.37,1,4.78,4.78,0,0,1,1.8,2.76h-2.5a2.63,2.63,0,0,0-1-1.3,2.9,2.9,0,0,0-1.69-.47,2.83,2.83,0,0,0-2.27,1,4.27,4.27,0,0,0-.84,2.82,4.32,4.32,0,0,0,.84,2.83,2.8,2.8,0,0,0,2.27,1,2.57,2.57,0,0,0,2.67-1.77h2.5a4.93,4.93,0,0,1-1.83,2.71,5.35,5.35,0,0,1-3.34,1,5.59,5.59,0,0,1-2.85-.72,5,5,0,0,1-1.94-2,7,7,0,0,1,0-6.08Z"/><path class="cls-1" d="M44.83,60.09a1.48,1.48,0,1,1,1.05.43A1.43,1.43,0,0,1,44.83,60.09ZM47,62V73.22H44.7V62Z"/><path class="cls-1" d="M51.78,72.92a4.18,4.18,0,0,1-1.66-1.3,3.17,3.17,0,0,1-.65-1.84h2.4A1.66,1.66,0,0,0,52.55,71a2.48,2.48,0,0,0,1.56.48,2.65,2.65,0,0,0,1.52-.38,1.13,1.13,0,0,0,.54-1,1,1,0,0,0-.61-.93,10.29,10.29,0,0,0-1.9-.67,18.81,18.81,0,0,1-2-.68,3.63,3.63,0,0,1-1.38-1,2.61,2.61,0,0,1-.58-1.78,2.76,2.76,0,0,1,.53-1.63,3.44,3.44,0,0,1,1.52-1.17A5.54,5.54,0,0,1,54,61.82a4.71,4.71,0,0,1,3.08,1,3.48,3.48,0,0,1,1.25,2.64H56a1.64,1.64,0,0,0-.61-1.2,2.27,2.27,0,0,0-1.48-.45,2.42,2.42,0,0,0-1.41.35A1.08,1.08,0,0,0,52,65a1,1,0,0,0,.33.76,2.39,2.39,0,0,0,.79.48c.31.11.78.26,1.39.43a14.48,14.48,0,0,1,2,.67,3.73,3.73,0,0,1,1.35,1,2.66,2.66,0,0,1,.6,1.73,2.91,2.91,0,0,1-.53,1.71A3.49,3.49,0,0,1,56.42,73a5.51,5.51,0,0,1-2.27.43A5.64,5.64,0,0,1,51.78,72.92Z"/><path class="cls-1" d="M61.07,60.09a1.49,1.49,0,0,1,1.06-2.55,1.44,1.44,0,0,1,1,.43,1.52,1.52,0,0,1,0,2.12,1.44,1.44,0,0,1-1,.43A1.47,1.47,0,0,1,61.07,60.09ZM63.27,62V73.22H61V62Z"/><path class="cls-1" d="M68.32,72.68a5.15,5.15,0,0,1-2-2,6.11,6.11,0,0,1-.73-3,6,6,0,0,1,.75-3,5.25,5.25,0,0,1,2.06-2,6.32,6.32,0,0,1,5.82,0,5.18,5.18,0,0,1,2.06,2,6,6,0,0,1,.75,3,5.93,5.93,0,0,1-.77,3,5.33,5.33,0,0,1-2.11,2.05,6.09,6.09,0,0,1-2.94.72A5.74,5.74,0,0,1,68.32,72.68ZM72.87,71a3.32,3.32,0,0,0,1.27-1.28,4.1,4.1,0,0,0,.49-2.08,4.28,4.28,0,0,0-.47-2.07,3.23,3.23,0,0,0-1.24-1.27,3.46,3.46,0,0,0-1.67-.43,3.39,3.39,0,0,0-1.66.43,3.09,3.09,0,0,0-1.21,1.27,4.4,4.4,0,0,0-.45,2.07,3.93,3.93,0,0,0,.93,2.8,3.05,3.05,0,0,0,2.33,1A3.5,3.5,0,0,0,72.87,71Z"/><path class="cls-1" d="M87.34,62.37A3.85,3.85,0,0,1,89,64a5.37,5.37,0,0,1,.59,2.6v6.62h-2.3V67a3.24,3.24,0,0,0-.75-2.31,3,3,0,0,0-4.12,0A3.2,3.2,0,0,0,81.63,67v6.27H79.31V62h2.32v1.28a3.9,3.9,0,0,1,1.46-1.08A4.78,4.78,0,0,1,85,61.82,5,5,0,0,1,87.34,62.37Z"/><path class="cls-1" d="M92.4,72.93a1.49,1.49,0,0,1,1.06-2.54,1.4,1.4,0,0,1,1,.43,1.54,1.54,0,0,1,0,2.11,1.4,1.4,0,0,1-1,.43A1.43,1.43,0,0,1,92.4,72.93Z"/><path class="cls-1" d="M112.11,65.32a3.85,3.85,0,0,1-1.63,1.56,6.08,6.08,0,0,1-2.87.6H105v5.74h-2.32V59.07h4.89a6.26,6.26,0,0,1,2.76.56,3.92,3.92,0,0,1,1.69,1.52,4.16,4.16,0,0,1,.56,2.13A4.29,4.29,0,0,1,112.11,65.32ZM109.58,65a2.17,2.17,0,0,0,.65-1.7c0-1.54-.87-2.32-2.62-2.32H105v4.62h2.57A2.81,2.81,0,0,0,109.58,65Z"/><path class="cls-1" d="M118.51,62.3a4,4,0,0,1,2-.48v2.4h-.59a2.82,2.82,0,0,0-2.06.69,3.29,3.29,0,0,0-.71,2.4v5.91h-2.32V62h2.32v1.63A3.62,3.62,0,0,1,118.51,62.3Z"/><path class="cls-1" d="M124.65,72.68a5.15,5.15,0,0,1-2-2,6.11,6.11,0,0,1-.73-3,6,6,0,0,1,.75-3,5.18,5.18,0,0,1,2.06-2,6.32,6.32,0,0,1,5.82,0,5.25,5.25,0,0,1,2.06,2,6,6,0,0,1,.75,3,5.84,5.84,0,0,1-.78,3,5.24,5.24,0,0,1-2.1,2.05,6.09,6.09,0,0,1-2.94.72A5.74,5.74,0,0,1,124.65,72.68ZM129.2,71a3.32,3.32,0,0,0,1.27-1.28A4.21,4.21,0,0,0,131,67.6a4.28,4.28,0,0,0-.47-2.07,3.23,3.23,0,0,0-1.24-1.27,3.49,3.49,0,0,0-1.67-.43,3.39,3.39,0,0,0-1.66.43,3.09,3.09,0,0,0-1.21,1.27,4.4,4.4,0,0,0-.45,2.07,3.93,3.93,0,0,0,.93,2.8,3,3,0,0,0,2.33,1A3.56,3.56,0,0,0,129.2,71Z"/><path class="cls-1" d="M135.57,64.56a5,5,0,0,1,1.94-2,5.68,5.68,0,0,1,2.85-.71,5.62,5.62,0,0,1,3.37,1,4.78,4.78,0,0,1,1.8,2.76H143a2.69,2.69,0,0,0-1-1.3,2.9,2.9,0,0,0-1.69-.47,2.81,2.81,0,0,0-2.27,1,4.27,4.27,0,0,0-.84,2.82,4.32,4.32,0,0,0,.84,2.83,2.79,2.79,0,0,0,2.27,1A2.59,2.59,0,0,0,143,69.68h2.5a4.93,4.93,0,0,1-1.83,2.71,5.37,5.37,0,0,1-3.34,1,5.59,5.59,0,0,1-2.85-.72,5,5,0,0,1-1.94-2,6.86,6.86,0,0,1,0-6.08Z"/><path class="cls-1" d="M158.05,68.47h-8.57a3.11,3.11,0,0,0,3.2,3,2.71,2.71,0,0,0,2.64-1.57h2.51A5.06,5.06,0,0,1,156,72.41a5.42,5.42,0,0,1-3.31,1,5.73,5.73,0,0,1-2.88-.72,5.1,5.1,0,0,1-2-2,6.21,6.21,0,0,1-.72-3,6.32,6.32,0,0,1,.7-3,5,5,0,0,1,2-2,5.9,5.9,0,0,1,2.92-.71,5.73,5.73,0,0,1,2.83.69,4.93,4.93,0,0,1,1.93,1.94,5.9,5.9,0,0,1,.69,2.88A6.5,6.5,0,0,1,158.05,68.47Zm-2.34-1.87a2.63,2.63,0,0,0-.91-2,3.27,3.27,0,0,0-2.22-.78,3,3,0,0,0-2.06.77,3.16,3.16,0,0,0-1,2.06Z"/><path class="cls-1" d="M162.11,72.92a4.18,4.18,0,0,1-1.66-1.3,3.31,3.31,0,0,1-.65-1.84h2.4a1.67,1.67,0,0,0,.69,1.19,2.45,2.45,0,0,0,1.55.48,2.62,2.62,0,0,0,1.52-.38,1.13,1.13,0,0,0,.54-1,1,1,0,0,0-.6-.93,10.58,10.58,0,0,0-1.9-.67,19.08,19.08,0,0,1-2.06-.68,3.52,3.52,0,0,1-1.37-1,2.61,2.61,0,0,1-.58-1.78,2.69,2.69,0,0,1,.53-1.63A3.41,3.41,0,0,1,162,62.25a5.61,5.61,0,0,1,2.27-.43,4.72,4.72,0,0,1,3.09,1,3.51,3.51,0,0,1,1.25,2.64h-2.32a1.68,1.68,0,0,0-.61-1.2,2.3,2.3,0,0,0-1.49-.45,2.39,2.39,0,0,0-1.4.35,1.05,1.05,0,0,0-.49.91,1,1,0,0,0,.32.76,2.44,2.44,0,0,0,.8.48c.31.11.77.26,1.38.43a14.67,14.67,0,0,1,2,.67,3.73,3.73,0,0,1,1.35,1,2.6,2.6,0,0,1,.59,1.73,2.91,2.91,0,0,1-.53,1.71,3.38,3.38,0,0,1-1.5,1.18,5.47,5.47,0,0,1-2.27.43A5.64,5.64,0,0,1,162.11,72.92Z"/><path class="cls-1" d="M173,72.92a4.18,4.18,0,0,1-1.66-1.3,3.31,3.31,0,0,1-.65-1.84h2.41a1.62,1.62,0,0,0,.68,1.19,2.45,2.45,0,0,0,1.55.48,2.62,2.62,0,0,0,1.52-.38,1.13,1.13,0,0,0,.54-1,1,1,0,0,0-.6-.93,10.29,10.29,0,0,0-1.9-.67,19.86,19.86,0,0,1-2.06-.68,3.52,3.52,0,0,1-1.37-1,2.61,2.61,0,0,1-.58-1.78,2.69,2.69,0,0,1,.53-1.63,3.41,3.41,0,0,1,1.51-1.17,5.61,5.61,0,0,1,2.27-.43,4.72,4.72,0,0,1,3.09,1,3.51,3.51,0,0,1,1.25,2.64h-2.32a1.68,1.68,0,0,0-.61-1.2,2.3,2.3,0,0,0-1.49-.45,2.39,2.39,0,0,0-1.4.35,1.05,1.05,0,0,0-.49.91,1,1,0,0,0,.32.76,2.44,2.44,0,0,0,.8.48c.31.11.77.26,1.38.43a14.67,14.67,0,0,1,2,.67,3.73,3.73,0,0,1,1.35,1,2.6,2.6,0,0,1,.59,1.73,2.91,2.91,0,0,1-.53,1.71A3.41,3.41,0,0,1,177.63,73a5.54,5.54,0,0,1-2.27.43A5.65,5.65,0,0,1,173,72.92Z"/><path class="cls-1" d="M182,72.93a1.49,1.49,0,0,1,1.06-2.54,1.4,1.4,0,0,1,1,.43,1.51,1.51,0,0,1,0,2.11,1.4,1.4,0,0,1-1,.43A1.43,1.43,0,0,1,182,72.93Z"/><path class="cls-1" d="M201.74,65.32a3.79,3.79,0,0,1-1.63,1.56,6,6,0,0,1-2.87.6h-2.57v5.74h-2.32V59.07h4.89a6.26,6.26,0,0,1,2.76.56,3.92,3.92,0,0,1,1.69,1.52,4.16,4.16,0,0,1,.56,2.13A4.29,4.29,0,0,1,201.74,65.32ZM199.21,65a2.17,2.17,0,0,0,.66-1.7c0-1.54-.88-2.32-2.63-2.32h-2.57v4.62h2.57A2.81,2.81,0,0,0,199.21,65Z"/><path class="cls-1" d="M206.46,72.68a5.12,5.12,0,0,1-2-2,6.11,6.11,0,0,1-.74-3,5.93,5.93,0,0,1,.76-3,5.16,5.16,0,0,1,2.05-2,6.32,6.32,0,0,1,5.82,0,5.18,5.18,0,0,1,2.06,2,6,6,0,0,1,.75,3,5.84,5.84,0,0,1-.77,3,5.33,5.33,0,0,1-2.11,2.05,6.09,6.09,0,0,1-2.94.72A5.77,5.77,0,0,1,206.46,72.68ZM211,71a3.26,3.26,0,0,0,1.27-1.28,4.1,4.1,0,0,0,.49-2.08,4.17,4.17,0,0,0-.47-2.07,3.16,3.16,0,0,0-1.24-1.27,3.44,3.44,0,0,0-3.33,0,3.09,3.09,0,0,0-1.21,1.27,4.4,4.4,0,0,0-.45,2.07,3.93,3.93,0,0,0,.93,2.8,3.05,3.05,0,0,0,2.33,1A3.5,3.5,0,0,0,211,71Z"/><path class="cls-1" d="M232.52,62,229,73.22h-2.45l-2.26-8.29-2.26,8.29h-2.44L216.13,62h2.36l2.34,9,2.39-9h2.42l2.28,9,2.32-9Z"/><path class="cls-1" d="M244.45,68.47h-8.57a3.09,3.09,0,0,0,1,2.16,3.13,3.13,0,0,0,2.2.82,2.73,2.73,0,0,0,2.65-1.57h2.5a5,5,0,0,1-1.84,2.53,5.4,5.4,0,0,1-3.31,1,5.75,5.75,0,0,1-2.88-.72,5.08,5.08,0,0,1-2-2,6.21,6.21,0,0,1-.73-3,6.32,6.32,0,0,1,.71-3,4.94,4.94,0,0,1,2-2,5.93,5.93,0,0,1,2.92-.71,5.7,5.7,0,0,1,2.83.69,4.89,4.89,0,0,1,1.94,1.94,5.9,5.9,0,0,1,.69,2.88A7.63,7.63,0,0,1,244.45,68.47Zm-2.34-1.87a2.64,2.64,0,0,0-.92-2,3.27,3.27,0,0,0-2.22-.78,3,3,0,0,0-2.05.77,3.11,3.11,0,0,0-1,2.06Z"/><path class="cls-1" d="M250.48,62.3a4,4,0,0,1,2-.48v2.4h-.59a2.84,2.84,0,0,0-2.07.69,3.29,3.29,0,0,0-.7,2.4v5.91h-2.32V62h2.32v1.63A3.66,3.66,0,0,1,250.48,62.3Z"/><path class="cls-1" d="M264.82,68.47h-8.57a3.11,3.11,0,0,0,3.2,3,2.73,2.73,0,0,0,2.65-1.57h2.5a5,5,0,0,1-1.84,2.53,5.4,5.4,0,0,1-3.31,1,5.75,5.75,0,0,1-2.88-.72,5.17,5.17,0,0,1-2-2,6.21,6.21,0,0,1-.72-3,6.43,6.43,0,0,1,.7-3,5,5,0,0,1,2-2,5.93,5.93,0,0,1,2.92-.71,5.73,5.73,0,0,1,2.83.69,4.87,4.87,0,0,1,1.93,1.94,5.79,5.79,0,0,1,.7,2.88A6.43,6.43,0,0,1,264.82,68.47Zm-2.34-1.87a2.63,2.63,0,0,0-.91-2,3.27,3.27,0,0,0-2.22-.78,3,3,0,0,0-2.06.77,3.16,3.16,0,0,0-1,2.06Z"/><path class="cls-1" d="M267.11,64.57a5.12,5.12,0,0,1,4.62-2.75,5.21,5.21,0,0,1,2.16.48,4.37,4.37,0,0,1,1.7,1.27V58.15h2.34V73.22h-2.34V71.53A4.32,4.32,0,0,1,274,72.87a5,5,0,0,1-2.31.53,5.08,5.08,0,0,1-2.68-.74,5.29,5.29,0,0,1-1.92-2.08,6.47,6.47,0,0,1-.7-3A6.26,6.26,0,0,1,267.11,64.57Zm8,1a3.36,3.36,0,0,0-1.26-1.3,3.24,3.24,0,0,0-1.67-.45,3.39,3.39,0,0,0-1.67.44,3.35,3.35,0,0,0-1.25,1.28,4,4,0,0,0-.48,2,4.14,4.14,0,0,0,.48,2,3.4,3.4,0,0,0,1.26,1.34,3.33,3.33,0,0,0,1.66.46,3.24,3.24,0,0,0,1.67-.45,3.35,3.35,0,0,0,1.26-1.32,4.58,4.58,0,0,0,0-4Z"/><path class="cls-1" d="M290.22,62.34a5,5,0,0,1,2.29-.52,5.22,5.22,0,0,1,2.69.71,5,5,0,0,1,1.89,2,6.32,6.32,0,0,1,.69,3,6.46,6.46,0,0,1-.69,3,5.24,5.24,0,0,1-1.9,2.08,5.34,5.34,0,0,1-5,.23,4.51,4.51,0,0,1-1.6-1.3v1.63h-2.32V58.15h2.32v5.52A4.38,4.38,0,0,1,290.22,62.34Zm4.72,3.21a3.3,3.3,0,0,0-1.26-1.28,3.4,3.4,0,0,0-1.68-.44,3.29,3.29,0,0,0-1.66.45,3.36,3.36,0,0,0-1.26,1.3,4.49,4.49,0,0,0,0,4,3.35,3.35,0,0,0,1.26,1.32,3.29,3.29,0,0,0,3.34,0,3.4,3.4,0,0,0,1.26-1.34,4.14,4.14,0,0,0,.48-2A4,4,0,0,0,294.94,65.55Z"/><path class="cls-1" d="M310.18,62,303.3,78.49h-2.4L303.18,73l-4.42-11h2.59l3.15,8.55L307.78,62Z"/><path class="cls-1" d="M325.75,70.33h-5.92l-1,2.89h-2.42l5.07-14.17h2.69l5.06,14.17h-2.44Zm-.65-1.9-2.3-6.57-2.32,6.57Z"/><path class="cls-1" d="M333.73,59.07V73.22h-2.32V59.07Z"/><path class="cls-1" d="M336.66,72.93a1.49,1.49,0,0,1,1.06-2.54,1.49,1.49,0,0,1,0,3A1.43,1.43,0,0,1,336.66,72.93Z"/><path d="M1.11.05H6.52A4.52,4.52,0,0,1,10.75,3L23.33,35.78,36,2.94A4.52,4.52,0,0,1,40.24.05h5.93a1,1,0,0,1,.92,1.38L29.41,44.36a6.5,6.5,0,0,1-6.12,3.55c-4.63,0-6.08-3.11-6.08-3.11L.18,1.41A1,1,0,0,1,1.11.05ZM50.32,1.37V46.55a1.36,1.36,0,0,0,1.35,1.36h6.4a1.36,1.36,0,0,0,1.36-1.36V1.39A1.36,1.36,0,0,0,58.08,0l-6.4,0A1.36,1.36,0,0,0,50.32,1.37Zm56.4,22.42c.1,13.26-11.09,24.12-24.35,24.12H67.18a2.11,2.11,0,0,1-2.11-2.12V2.16A2.11,2.11,0,0,1,67.18.05H82.79a23.93,23.93,0,0,1,23.93,23.74Zm-9.45-.95A12.3,12.3,0,0,0,85,10.54H74.25V38.12H85a12.3,12.3,0,0,0,12.3-12.3ZM339.12,46.66c-1.22-3.09-4.07-10.58-4.07-10.58S323.4,7.86,321.71,3.75,315,0,315,0h-1c-5.56,0-6.37,3.46-6.37,3.46l-15,34c-.54,1.21-2.58,1.71-2.58,1.71V1.4A1.4,1.4,0,0,0,288.69,0h-6.45a1.39,1.39,0,0,0-1.39,1.39V28.48L259,1a2.57,2.57,0,0,0-2-1h-6.17a2.57,2.57,0,0,0-2.58,2.58V38.85c-2.42.87-3.61-2.77-3.61-2.77S232.94,7.86,231.25,3.75,224.52,0,224.52,0h-1c-5.56,0-6.36,3.46-6.36,3.46l-15,34c-1.08,2-2.58,1.71-2.58,1.71-1.21,0-2.46-3.08-2.46-3.08S185.52,7.86,183.83,3.75,177.1,0,177.1,0h-1c-5.55,0-6.36,3.46-6.36,3.46l-15,34c-1.18,2.52-2.41-1.24-2.41-1.24V1.13A1.1,1.1,0,0,0,151.29,0l-6.94,0a1.09,1.09,0,0,0-1.09,1.09V17.87A1.08,1.08,0,0,1,142.18,19h-21a1.08,1.08,0,0,1-1.08-1.08V1.13A1.09,1.09,0,0,0,119.06,0l-6.94,0A1.09,1.09,0,0,0,111,1.1V46.82a1.09,1.09,0,0,0,1.09,1.09h6.94a1.09,1.09,0,0,0,1.08-1.09V29.14a1.08,1.08,0,0,1,1.08-1.09h21a1.08,1.08,0,0,1,1.08,1.09V45.08a2.83,2.83,0,0,0,2.83,2.83H158.7a3.83,3.83,0,0,0,3.52-2.33L176.54,12l13.54,32.77a5,5,0,0,0,4.63,3.1h11.41a3.83,3.83,0,0,0,3.52-2.33L224,12,237.5,44.81a5,5,0,0,0,4.63,3.1h11.45a4.07,4.07,0,0,0,4.06-4.07V14l25.2,32.49a3.75,3.75,0,0,0,3,1.45h11.44a2.86,2.86,0,0,0,2.62-1.74L314.42,12,328.7,46.59a2.13,2.13,0,0,0,2,1.32h7.61A.91.91,0,0,0,339.12,46.66Z"/></g></g></svg>